<?xml version="1.0" encoding="UTF-8" standalone="no"?><!DOCTYPE svg PUBLIC "-//W3C//DTD SVG 1.1//EN" "http://www.w3.org/Graphics/SVG/1.1/DTD/svg11.dtd"><svg width="100%" height="100%" viewBox="0 0 1000 1000" version="1.1" xmlns="http://www.w3.org/2000/svg" xmlns:xlink="http://www.w3.org/1999/xlink" xml:space="preserve" xmlns:serif="http://www.serif.com/" style="fill-rule:evenodd;clip-rule:evenodd;stroke-linejoin:round;stroke-miterlimit:2;"><rect id="Logo" x="0" y="0" width="1000" height="1000" style="fill:none;"/><circle cx="500" cy="500" r="500" style="fill:#fff;"/><clipPath id="_clip1"><circle cx="500" cy="500" r="500"/></clipPath><g clip-path="url(#_clip1)"><rect x="500" y="0" width="500" height="1000" style="fill:#f4f5f8;"/><path d="M360.142,746.236c-31.914,0 -57.084,-3.438 -75.51,-10.315c-18.426,-6.876 -31.65,-17.235 -39.673,-31.077c-8.023,-13.841 -12.034,-32.399 -12.034,-55.674l-0,-75.378c-0,-15.341 -1.675,-27.331 -5.025,-35.971c-3.351,-8.639 -8.332,-14.679 -14.944,-18.117c-6.612,-3.438 -15.649,-5.157 -27.11,-5.157l0,-29.094c11.461,0 20.498,-1.719 27.11,-5.157c6.612,-3.438 11.593,-9.478 14.944,-18.117c3.35,-8.64 5.025,-20.63 5.025,-35.971l-0,-75.378c-0,-23.275 4.011,-41.833 12.034,-55.674c8.023,-13.842 21.247,-24.201 39.673,-31.077c18.426,-6.877 43.596,-10.315 75.51,-10.315l6.084,-0l-0,28.829c-12.519,-0 -22.129,0.97 -28.829,2.909c-6.701,1.94 -12.123,5.069 -16.266,9.389c-4.144,4.32 -7.362,11.065 -9.654,20.234c-2.292,9.168 -3.438,22.216 -3.438,39.143l-0,49.459c-0,17.28 -1.763,31.738 -5.29,43.376c-3.526,11.637 -9.566,21.6 -18.117,29.887c-8.552,8.287 -20.233,15.164 -35.045,20.63l0,4.76c14.812,5.29 26.625,12.343 35.442,21.159c8.816,8.816 14.855,18.999 18.117,30.548c3.262,11.55 4.893,25.611 4.893,42.186l-0,49.459c-0,13.4 0.705,24.244 2.116,32.531c1.41,8.288 3.35,14.767 5.818,19.44c2.469,4.673 5.555,8.375 9.257,11.108c3.703,2.733 8.552,4.849 14.547,6.348c5.995,1.499 14.811,2.248 26.449,2.248l-0,28.829l-6.084,0Z" style="fill:url(#_Linear2);fill-rule:nonzero;"/><path d="M639.858,253.764c31.914,-0 57.084,3.438 75.51,10.315c18.426,6.876 31.65,17.235 39.673,31.077c8.023,13.841 12.034,32.399 12.034,55.674l0,75.378c0,15.341 1.675,27.331 5.025,35.971c3.351,8.639 8.332,14.679 14.944,18.117c6.612,3.438 15.649,5.157 27.11,5.157l-0,29.094c-11.461,-0 -20.498,1.719 -27.11,5.157c-6.612,3.438 -11.593,9.478 -14.944,18.117c-3.35,8.64 -5.025,20.63 -5.025,35.971l0,75.378c0,23.275 -4.011,41.833 -12.034,55.674c-8.023,13.842 -21.247,24.201 -39.673,31.077c-18.426,6.877 -43.596,10.315 -75.51,10.315l-6.084,0l0,-28.829c11.638,0 20.454,-0.749 26.449,-2.248c5.995,-1.499 10.844,-3.615 14.547,-6.348c3.702,-2.733 6.788,-6.435 9.257,-11.108c2.468,-4.673 4.408,-11.152 5.818,-19.44c1.411,-8.287 2.116,-19.131 2.116,-32.531l0,-49.459c0,-17.28 1.763,-31.738 5.29,-43.376c3.526,-11.637 9.566,-21.6 18.117,-29.887c8.552,-8.287 20.233,-15.164 35.045,-20.63l-0,-4.76c-14.812,-5.29 -26.625,-12.343 -35.442,-21.159c-8.816,-8.816 -14.855,-18.999 -18.117,-30.548c-3.262,-11.55 -4.893,-25.611 -4.893,-42.186l0,-49.459c0,-13.4 -0.705,-24.244 -2.116,-32.531c-1.41,-8.288 -3.35,-14.767 -5.818,-19.44c-2.469,-4.673 -5.555,-8.375 -9.257,-11.108c-3.703,-2.733 -8.552,-4.849 -14.547,-6.348c-5.995,-1.499 -14.811,-2.248 -26.449,-2.248l0,-28.829l6.084,-0Z" style="fill:url(#_Linear3);fill-rule:nonzero;"/><path d="M534.672,376.617l-0,79.875l-71.147,0l0,-79.875l71.147,0Zm-0,166.891l-0,79.875l-71.147,-0l0,-79.875l71.147,-0Z" style="fill:#373737;fill-rule:nonzero;"/></g><defs><linearGradient id="_Linear2" x1="0" y1="0" x2="1" y2="0" gradientUnits="userSpaceOnUse" gradientTransform="matrix(-7.93626e-14,493.511,-13776.7,-2.21545e-12,366.226,253.764)"><stop offset="0" style="stop-color:#ffad1b;stop-opacity:1"/><stop offset="0.5" style="stop-color:#61cf54;stop-opacity:1"/><stop offset="1" style="stop-color:#5566f6;stop-opacity:1"/></linearGradient><linearGradient id="_Linear3" x1="0" y1="0" x2="1" y2="0" gradientUnits="userSpaceOnUse" gradientTransform="matrix(3.01552e-14,492.472,-13747.7,8.41801e-13,633.774,253.764)"><stop offset="0" style="stop-color:#d54f68;stop-opacity:1"/><stop offset="1" style="stop-color:#41acfc;stop-opacity:1"/></linearGradient></defs></svg>